# xmcd
#
# Track frame offsets:
# 150
# 5090
# 22440
# 40355
# 64200
# 81715
# 101153
# 120303
# 156423
# 170568
# 189733
# 211210
# 231645
# 251970
# 269085
# 290850
# 309633
#
# Disc length: 4454 seconds
#
# Revision: 1
# Processed by: cddbd v1.5.1PL2 Copyright (c) Steve Scherf et al.
# Submitted via: CedeCatalogueitor 2.6.0.6 http://personales.ya.com/cdcatalogueitor
#
DISCID=1c116411
DTITLE=Enigma - Great Hits
DYEAR=2001
DGENRE=Chillout
TTITLE0=Sadfasfsa
TTITLE1=Pollon
TTITLE2=Pollarda
TTITLE3=Hijo Puta
TTITLE4=Cerdos
TTITLE5=Rojos 
TTITLE6=Moros
TTITLE7=Judios
TTITLE8=Cabrones
TTITLE9=Mamones
TTITLE10=Sad
TTITLE11=Ad
TTITLE12=Fe
TTITLE13=Errrrr
TTITLE14=Ffdsafsa
TTITLE15=Afdasd
TTITLE16=Asaasd
EXTD=
EXTT0=
EXTT1=
EXTT2=
EXTT3=
EXTT4=
EXTT5=
EXTT6=
EXTT7=
EXTT8=
EXTT9=
EXTT10=
EXTT11=
EXTT12=
EXTT13=
EXTT14=
EXTT15=
EXTT16=
PLAYORDER=
